<svg xmlns="http://www.w3.org/2000/svg" viewBox="0 0 455.4 455.4"><path d="M454.8 6.6c-.3-.8-.6-1.5-1-2.2v-.1c-.5-.7-1-1.3-1.7-1.8-.2-.1-.3-.3-.5-.4-.7-.5-1.4-1-2.2-1.3h-.1c-.7-.3-1.5-.5-2.4-.6-.2 0-.4-.1-.7-.1-.2 0-.4-.1-.6-.1H155c-.6 0-1.2.1-1.8.2h-.1c-.8.2-1.6.5-2.4.8-.2.1-.3.2-.5.3-.7.4-1.5.9-2.1 1.5L2.8 148.2c-.4.4-.8.9-1.2 1.5-.1.1-.2.3-.3.5-.2.4-.5.8-.6 1.2-.1.2-.1.4-.2.6-.1.4-.3.8-.4 1.2 0 .5-.1 1.2-.1 1.8v290.7c0 .9.2 1.7.4 2.5.1.2.1.4.2.6.3.8.6 1.5 1 2.2v.1c.5.7 1 1.3 1.7 1.8.2.1.3.3.5.4.7.5 1.4 1 2.2 1.3.2.1.4.1.6.2.4.1.8.3 1.2.4.6.1 1.3.2 1.9.2h290.7c.6 0 1.3-.1 1.9-.2.4-.1.7-.2 1-.3.3-.1.5-.1.8-.2.4-.2.7-.4 1.1-.6l.6-.3 1.5-1.2 145.3-145.3c.4-.4.8-.9 1.2-1.5.1-.1.2-.3.2-.5.2-.4.5-.8.6-1.2.1-.2.1-.4.2-.6.1-.4.3-.8.4-1.2.1-.6.2-1.3.2-1.9V9.7c0-.9-.2-1.7-.4-2.5-.1-.3-.1-.4-.2-.6zM145.3 296.3l-126 126V164.7h126v131.6zM159 310h131.6v126H33.1L159 310zm5.7-19.3v-126h126v126h-126zm131.6-145.4H164.7v-126h257.6l-126 126zM310 159L436 33v257.6H310V159zm-164.7-13.7H33.1L145.3 33.1v112.2zM310 310h112.3L310 422.3V310z"/></svg>