<svg xmlns="http://www.w3.org/2000/svg" viewBox="0 0 458.7 458.7"><path d="M14.4 268c3.3 3.3 3.3 8.7 0 11.9-3.3 3.3-8.7 3.3-11.9 0-3.3-3.3-3.3-8.6 0-12 3.3-3.2 8.6-3.2 11.9.1zM67.5 214.9c3.3 3.3 3.3 8.6 0 12a8.39 8.39 0 0 1-11.9 0c-3.3-3.3-3.3-8.7 0-12 3.3-3.3 8.6-3.3 11.9 0z"/><ellipse transform="rotate(-45.001 114.667 167.785)" cx="114.7" cy="167.8" rx="8.4" ry="8.4"/><path d="M173.8 108.7c3.3 3.3 3.3 8.7 0 12-3.3 3.3-8.7 3.3-11.9 0-3.3-3.3-3.3-8.6 0-12 3.2-3.3 8.6-3.3 11.9 0z"/><ellipse transform="rotate(-44.984 220.906 61.567)" cx="220.9" cy="61.6" rx="8.4" ry="8.4"/><ellipse transform="rotate(-45.001 274.002 8.454)" cx="274" cy="8.5" rx="8.4" ry="8.4"/><g><path d="M73.2 326.8c3.3 3.3 3.3 8.7 0 11.9-3.3 3.3-8.7 3.3-11.9 0-3.3-3.3-3.3-8.6 0-12 3.2-3.2 8.6-3.2 11.9.1zM126.3 273.7c3.3 3.3 3.3 8.6 0 12a8.39 8.39 0 0 1-11.9 0c-3.3-3.3-3.3-8.7 0-12 3.2-3.3 8.6-3.3 11.9 0z"/><ellipse transform="rotate(-45.001 173.431 226.55)" cx="173.4" cy="226.5" rx="8.4" ry="8.4"/><path d="M232.5 167.5c3.3 3.3 3.3 8.7 0 12-3.3 3.3-8.7 3.3-11.9 0-3.3-3.3-3.3-8.6 0-12 3.3-3.3 8.6-3.3 11.9 0z"/><ellipse transform="rotate(-44.992 279.646 120.331)" cx="279.7" cy="120.3" rx="8.4" ry="8.4"/><path d="M338.7 61.2c3.3 3.3 3.3 8.6 0 11.9-3.3 3.3-8.7 3.3-11.9 0a8.39 8.39 0 0 1 0-11.9c3.3-3.3 8.6-3.3 11.9 0z"/></g><g><ellipse transform="rotate(-44.992 125.99 391.554)" cx="126" cy="391.5" rx="8.4" ry="8.4"/><path d="M185.1 332.4c3.3 3.3 3.3 8.6 0 12a8.39 8.39 0 0 1-11.9 0c-3.3-3.3-3.3-8.7 0-12 3.2-3.3 8.6-3.3 11.9 0z"/><ellipse transform="rotate(-45.001 232.196 285.315)" cx="232.2" cy="285.3" rx="8.4" ry="8.4"/><path d="M291.3 226.2c3.3 3.3 3.3 8.7 0 12-3.3 3.3-8.7 3.3-11.9 0-3.3-3.3-3.3-8.6 0-12 3.2-3.3 8.6-3.3 11.9 0zM344.4 173.1c3.3 3.3 3.3 8.6 0 11.9a8.39 8.39 0 0 1-11.9 0c-3.3-3.3-3.3-8.7 0-12 3.2-3.2 8.6-3.2 11.9.1zM397.5 120c3.3 3.3 3.3 8.6 0 11.9-3.3 3.3-8.7 3.3-11.9 0a8.39 8.39 0 0 1 0-11.9c3.2-3.3 8.6-3.3 11.9 0z"/></g><g><ellipse transform="rotate(-44.984 184.748 450.31)" cx="184.7" cy="450.3" rx="8.4" ry="8.4"/><path d="M243.8 391.2c3.3 3.3 3.3 8.6 0 12a8.39 8.39 0 0 1-11.9 0c-3.3-3.3-3.3-8.7 0-12 3.3-3.3 8.6-3.3 11.9 0z"/><ellipse transform="rotate(-45.001 290.963 344.08)" cx="291" cy="344.1" rx="8.4" ry="8.4"/><path d="M350 285c3.3 3.3 3.3 8.6 0 12a8.39 8.39 0 0 1-11.9 0c-3.3-3.3-3.3-8.6 0-12 3.3-3.3 8.6-3.3 11.9 0zM403.1 231.9c3.3 3.3 3.3 8.6 0 11.9a8.39 8.39 0 0 1-11.9 0c-3.3-3.3-3.3-8.7 0-12 3.3-3.2 8.6-3.2 11.9.1zM456.3 178.8c3.3 3.3 3.3 8.6 0 11.9-3.3 3.3-8.7 3.3-11.9 0a8.39 8.39 0 0 1 0-11.9c3.2-3.3 8.6-3.3 11.9 0z"/></g></svg>