<svg xmlns="http://www.w3.org/2000/svg" viewBox="0 0 436 455"><path d="M0 0h22v22H0zM69 0h22v22H69zM138 0h22v22h-22zM207 0h22v22h-22zM276 0h22v22h-22zM345 0h22v22h-22zM414 0h22v22h-22zM0 72.2h22v22H0zM69 72.2h22v22H69zM138 72.2h22v22h-22zM207 72.2h22v22h-22zM276 72.2h22v22h-22zM345 72.2h22v22h-22zM414 72.2h22v22h-22zM0 144.3h22v22H0zM69 144.3h22v22H69zM138 144.3h22v22h-22zM207 144.3h22v22h-22zM276 144.3h22v22h-22zM345 144.3h22v22h-22zM414 144.3h22v22h-22zM0 216.5h22v22H0zM69 216.5h22v22H69zM138 216.5h22v22h-22zM207 216.5h22v22h-22zM276 216.5h22v22h-22zM345 216.5h22v22h-22zM414 216.5h22v22h-22zM0 288.6h22v22H0zM69 288.6h22v22H69zM138 288.6h22v22h-22zM207 288.6h22v22h-22zM276 288.6h22v22h-22zM345 288.6h22v22h-22zM414 288.6h22v22h-22zM0 360.8h22v22H0zM69 360.8h22v22H69zM138 360.8h22v22h-22zM207 360.8h22v22h-22zM276 360.8h22v22h-22zM345 360.8h22v22h-22zM414 360.8h22v22h-22zM0 433h22v22H0zM69 433h22v22H69zM138 433h22v22h-22zM207 433h22v22h-22zM276 433h22v22h-22zM345 433h22v22h-22zM414 433h22v22h-22z"/></svg>