<svg xmlns="http://www.w3.org/2000/svg" viewBox="0 0 471.6 471.6"><path d="M98.2 427.6c8.1 5.8 16.4 11.1 25 15.8l320.1-320.2c-4.7-8.6-9.9-17-15.7-25.1L98.2 427.6zM446.6 342.5c10-19.8 17.1-40.7 21.2-61.9L280.6 467.8c21.3-4.1 42.1-11.1 61.8-21l104.2-104.3zM469.9 204.3L204.3 469.9c12.9 1.7 25.8 2.4 38.8 2l228.8-228.8c.4-13-.3-26-2-38.8zM464.4 176.4c-2.7-10.4-6.1-20.6-10.2-30.6L145.8 454.2c10 4.1 20.2 7.6 30.5 10.3l288.1-288.1zM229 .1L.2 228.9c-.4 13 .2 26 2 38.8L267.7 2.1C254.9.4 241.9-.3 229 .1zM373.8 44.4c-8.1-5.8-16.4-11.1-25-15.8L28.7 348.8c4.7 8.6 9.9 17 15.7 25.1L373.8 44.4zM191.4 4.2c-21.3 4.1-42.1 11.1-61.8 21L25.4 129.5c-10 19.8-17.1 40.7-21.2 62L191.4 4.2zM412.8 79.6c-6.3-7.1-13.1-13.9-20.4-20.3L59.2 392.4c6.3 7.1 13.2 13.9 20.4 20.3L412.8 79.6zM326.2 17.8c-10-4.1-20.2-7.6-30.5-10.3l-288 288c2.7 10.4 6.1 20.6 10.2 30.6L326.2 17.8z"/></svg>