<svg viewBox="0 0 256 230" xmlns="http://www.w3.org/2000/svg" preserveAspectRatio="xMinYMin meet"><path d="M.8 114.8C.8 134 19.5 151.8 49 162c-6 29.8-1 53.7 15.1 63 16.7 9.7 41.5 3 65-17.6 23 19.8 46.1 27.6 62.3 18.2 16.7-9.6 21.7-35.2 15.6-65.9 30.9-10.2 48-25.5 48-45 0-18.7-18.7-35-47.9-45 6.5-32 1-55.3-15.9-65-16.2-9.4-39.7-1.3-63 19C104.1 2.2 81-4.3 64 5.4c-16.2 9.4-20.8 33.8-14.9 64C20.5 79.5.8 96.2.8 114.8z" fill="#FFF"/><path d="M201 79.7a151.4 151.4 0 0 0-7.2-2.3 137.5 137.5 0 0 0 1-5c5.6-26.7 2-48.2-10.3-55.3-11.8-6.8-31 .3-50.5 17.2a151.1 151.1 0 0 0-5.7 5.2 137.6 137.6 0 0 0-3.7-3.5C104.2 18 83.7 10.3 71.4 17.4c-11.7 6.8-15.2 27-10.3 52.4a151 151 0 0 0 1.7 7.4c-2.9.9-5.7 1.7-8.4 2.7-23.9 8.3-39.2 21.4-39.2 35 0 14 16.4 28 41.4 36.5a128.4 128.4 0 0 0 6 2 147.8 147.8 0 0 0-1.7 8c-4.7 24.9-1 44.6 10.7 51.4 12.1 7 32.5-.2 52.3-17.5a128 128 0 0 0 4.7-4.4 148.3 148.3 0 0 0 6.1 5.6c19.2 16.5 38.2 23.2 50 16.4 12-7 16-28.2 10.9-54l-1.4-6.1 4.2-1.3c26-8.6 42.8-22.5 42.8-36.7 0-13.6-15.8-26.7-40.2-35.1z" fill="#53C1DE"/><path d="M195.4 142.3l-3.8 1.2c-2.8-9-6.7-18.7-11.4-28.6 4.5-9.7 8.2-19.2 11-28.2l6.7 2.1c20.9 7.2 33.6 17.8 33.6 26 0 8.8-13.7 20.1-36 27.5zm-9.3 18.4a81.7 81.7 0 0 1 1.1 29.8c-1.3 7.3-4 12.1-7.4 14-7.1 4.2-22.3-1.2-38.8-15.3l-5.6-5.2c6.3-7 12.7-15 18.9-24 11-1 21.2-2.6 30.6-4.7l1.2 5.4zM92.3 204c-7 2.4-12.5 2.5-15.9.6-7.1-4.2-10-20-6-41.3a138.5 138.5 0 0 1 1.6-7.5 227 227 0 0 0 30.5 4.4c6.2 8.8 12.8 16.9 19.4 24a118.9 118.9 0 0 1-4.3 4 81.8 81.8 0 0 1-25.3 15.8zm-32.6-61.6a81.8 81.8 0 0 1-26.4-14c-5.6-4.8-8.4-9.6-8.4-13.5 0-8.2 12.3-18.7 32.7-25.8a139.3 139.3 0 0 1 7.8-2.5c2.8 9.2 6.5 18.9 11 28.6a235 235 0 0 0-11.1 29 119 119 0 0 1-5.6-1.8zm11-74.4c-4.3-21.7-1.5-38 5.6-42.2 7.5-4.4 24.3 1.9 41.9 17.5l3.4 3.2c-6.6 7-13 15-19.3 23.8-10.6 1-20.8 2.5-30.1 4.7a141.5 141.5 0 0 1-1.6-7zm97.4 24a307 307 0 0 0-6.9-11.2c7.2.9 14.1 2 20.6 3.6-2 6.2-4.4 12.7-7.2 19.4A336.4 336.4 0 0 0 168 92zm-39.8-38.6c4.5 4.8 9 10.2 13.3 16a284.2 284.2 0 0 0-26.7 0c4.4-5.8 9-11.2 13.4-16zM88.3 92a285.2 285.2 0 0 0-6.4 11.7 213 213 0 0 1-7.1-19.5c6.4-1.5 13.3-2.7 20.5-3.5a283.8 283.8 0 0 0-7 11.3zm7.2 57.7c-7.4-.8-14.4-2-20.9-3.3 2-6.5 4.5-13.2 7.4-20a283.5 283.5 0 0 0 6.4 11.7 285.3 285.3 0 0 0 7 11.6zm33.1 27.4a217 217 0 0 1-13.6-16.3 336.9 336.9 0 0 0 26.9 0c-4.4 6-8.9 11.4-13.3 16.3zm46-51a205 205 0 0 1 7.7 19.9c-6.6 1.4-13.7 2.7-21.1 3.5a337.5 337.5 0 0 0 7-11.5 306.6 306.6 0 0 0 6.5-12zm-14.8 7.1a316.5 316.5 0 0 1-10.9 17.5 291 291 0 0 1-41.1.1 273.8 273.8 0 0 1-11-17.5A271.3 271.3 0 0 1 87 115a273.9 273.9 0 0 1 9.6-18.2 271.3 271.3 0 0 1 11-17.5 273.5 273.5 0 0 1 41.1 0 290.7 290.7 0 0 1 11 17.4 316.4 316.4 0 0 1 9.7 18.1 290.8 290.8 0 0 1-9.7 18.3zm19.9-107.8c7.5 4.4 10.5 22 5.7 45a127.5 127.5 0 0 1-1 4.6c-9.4-2.2-19.5-3.8-30.2-4.8A226.8 226.8 0 0 0 135 46.4a142 142 0 0 1 5.2-4.8C157 27 172.6 21.3 179.7 25.4z" fill="#FFF"/><path d="M128.2 94.7a20.2 20.2 0 1 1 0 40.3 20.2 20.2 0 0 1 0-40.3" fill="#53C1DE"/></svg>