<svg viewBox="0 0 256 244" xmlns="http://www.w3.org/2000/svg" preserveAspectRatio="xMinYMin meet"><path d="M32.2 98.6c2.9 0 5.2.4 7 1.2 1.8.8 2.7 1.7 2.7 3 0 1.4-.4 3-1.1 4.9a39 39 0 0 1-2.1 4.5c-.3.3-.6.3-1 .1-.4-.2-.6-.5-.6-1 .4-1 .6-2.3.6-4 0-1.9-.5-3.4-1.5-4.6a5 5 0 0 0-4-1.7c-2.3 0-4 .6-5.5 2a7.9 7.9 0 0 0-2 5.9c0 2 .5 4 1.6 6a69.7 69.7 0 0 0 3.8 5.7 56.8 56.8 0 0 1 3.8 6.2c1.2 2.2 1.8 4.6 1.8 7.4 0 4.8-1.9 8.4-5.7 11a26 26 0 0 1-15 4c-4.5 0-8-.7-10.6-2.1-2.6-1.5-3.9-3-3.9-4.8 0-.5.2-1.2.6-2.2l1.6-3a45.6 45.6 0 0 1 2.2-3.1c.7-1 1.6-2 2.5-2.6.4-.2.8-.2 1.1.2.3.4.4.8.1 1.2-.8.8-1.4 1.6-1.8 2.5-.4.9-.6 2-.6 3.5 0 2.3.8 4.3 2.4 5.8a8.5 8.5 0 0 0 6.1 2.3c3.5 0 6.2-1 8-2.9 2-2 3-4.3 3-7 0-2.5-.6-4.9-1.7-7a76.2 76.2 0 0 0-3.7-6.4 83.8 83.8 0 0 1-3.7-6.2 14.1 14.1 0 0 1-1.7-6.8c0-3.4 1.5-6.3 4.4-8.6 2.9-2.3 7.2-3.4 12.9-3.4zm54 1c.7.2 1 .6.8 1-.1.5-.7.9-1.8 1.1a138.5 138.5 0 0 0-15 .8c-2.7 6.5-4.8 12.8-6.6 19a58.2 58.2 0 0 0-2.5 14.9c0 4.5 1.7 6.7 5.1 6.7 3.4 0 7.3-3 11.5-8.9.4-.3.8-.3 1 0 .4.3.5.7.4 1.4a35.9 35.9 0 0 1-8.5 9.6c-3.5 2.7-6.8 4-10.1 4-3.5 0-6-.8-7.6-2.4a9.2 9.2 0 0 1-2.5-6.9c0-3.8.9-9 2.7-15.8 1.9-6.7 4.3-13.6 7.2-20.6-3.5.4-6.6 1-9.5 1.6-.7-.1-.9-.5-.5-1 .3-.5.9-1 1.8-1.7.8-.6 1.8-1 3-1.5s2.3-.7 3.4-.7H60l1.6-.2A214.3 214.3 0 0 1 67 88.9c1.9-3.6 3.7-6.8 5.5-9.7a11 11 0 0 1 3.3-2.5 23.4 23.4 0 0 1 7.3-2.4c.9 0 1.3.2 1.1.7-2.2 3.5-4.4 7.3-6.6 11.5a206.8 206.8 0 0 0-6.2 13.3c2.5-.2 5-.2 7.6-.2h7.2z" fill="#606060"/><path d="M206.3.5c2 0 3.6.5 4.8 1.5 1.3 1 2.2 2.3 2.6 4 .5 1.6.5 3.5.2 5.6-.3 2.1-1 4.2-2.3 6.3-.2.3-.6.3-1 0a2 2 0 0 1-.7-1c.2-1.5-.3-2.8-1.7-3.9-1.4-1-3.6-1.6-6.5-1.6-5.4 0-10.8 2-16.3 6s-10.8 9.4-16 16A150 150 0 0 0 155 56.2a215.4 215.4 0 0 0-11.6 26.5 205 205 0 0 0-7.9 27c-1.9 9-2.8 17.2-2.8 24.6 0 4 1 6 3.3 6a7 7 0 0 0 4.7-2 39 39 0 0 0 5.2-6c.4-.2.8-.2 1.1.2.3.3.4.7.3 1.2-2.6 4-5.7 7.3-9.3 10-3.6 2.6-6.8 3.9-9.7 3.9-2.5 0-4.2-.7-5.2-2.2a9.6 9.6 0 0 1-1.5-5.5c0-6.2 1.3-14 4-23.3A247 247 0 0 1 136 87.1c4.5-10.3 9.6-20.7 15.4-31a244.1 244.1 0 0 1 18-27.8c6.3-8.2 12.7-14.9 19-20A29 29 0 0 1 206.3.4zM30.5 243.8c-2 0-3.5-.5-4.8-1.5a7.5 7.5 0 0 1-2.6-4c-.4-1.6-.5-3.5-.2-5.6.4-2.1 1.1-4.2 2.3-6.4.3-.2.6-.2 1 0 .4.3.7.6.8 1-.3 1.6.3 3 1.7 4s3.5 1.6 6.4 1.6c5.4 0 10.9-2 16.3-6 5.5-4 10.8-9.4 16-16a150 150 0 0 0 14.4-22.8 215.3 215.3 0 0 0 11.7-26.5c3.3-9 5.9-18.1 7.8-27.1 2-9 2.9-17.2 2.9-24.6 0-4-1.1-5.9-3.4-5.9a7 7 0 0 0-4.6 2 39.1 39.1 0 0 0-5.3 6c-.4.2-.7.2-1-.2-.4-.3-.5-.7-.4-1.3 2.7-4 5.8-7.2 9.3-9.9 3.6-2.6 6.8-4 9.7-4 2.5 0 4.3.8 5.3 2.3 1 1.4 1.5 3.3 1.5 5.5 0 6.2-1.3 14-4 23.3-2.6 9.3-6.2 19.1-10.6 29.5a313.6 313.6 0 0 1-15.3 31 244.3 244.3 0 0 1-18.1 27.7c-6.3 8.3-12.6 15-19 20.1a29 29 0 0 1-17.7 7.8z" fill="#B3D107"/><path d="M164.3 149.2c-5.6 0-8.4-3-8.4-9a56.9 56.9 0 0 1 2.9-16c1-3 2.2-6 3.5-9a55.5 55.5 0 0 1 4.7-8.7 65.7 65.7 0 0 0-4.1 2.9 33.1 33.1 0 0 0-3.6 3c-.4.3-.7.2-1-.3-.4-.4-.4-.9-.2-1.3a74.7 74.7 0 0 1 21.6-13.3c.7 0 1.2.3 1.5.6.3.3.4.7 0 1.3a76 76 0 0 0-10.1 18 50.7 50.7 0 0 0-3.9 18.8c0 3.8 1.2 5.7 3.6 5.7 1.7 0 3.8-1.1 6.3-3.4s5.2-5.4 8-9.1c2.7-3.8 5.5-8 8.4-12.8a192 192 0 0 0 7.8-14.5c.4-.8 1.5-1.5 3.4-2.3 2-.8 3.9-1.2 5.9-1.2s2.6.5 1.8 1.6a190.5 190.5 0 0 0-4.9 9.6 73.4 73.4 0 0 0-3.4 8.8 58.6 58.6 0 0 0-2.1 8.8c-.5 3-.7 6.2-.7 9.8 0 4.2 1.1 6.3 3.3 6.3 2.3 0 4.8-2 7.6-6a1 1 0 0 1 1.2 0c.4.3.5.7.4 1.3-2.3 3.4-4.8 6-7.5 7.8a13.8 13.8 0 0 1-7.4 2.6c-5.5 0-8.3-3.2-8.3-9.7 0-6.7 1.2-13.3 3.6-20a90.9 90.9 0 0 1-15.9 21.7c-5.5 5.4-10.2 8-14 8zM246 98.6c3 0 5.3.4 7 1.2 1.8.8 2.7 1.7 2.7 3 0 1.4-.4 3-1 4.9-.8 1.8-1.5 3.3-2.2 4.5-.2.3-.6.3-1 .1-.3-.2-.5-.5-.5-1 .4-1 .6-2.3.6-4 0-1.9-.5-3.4-1.5-4.6a5 5 0 0 0-4-1.7c-2.3 0-4.1.6-5.5 2a7.9 7.9 0 0 0-2.1 5.9c0 2 .5 4 1.7 6a69.7 69.7 0 0 0 3.7 5.7 56.8 56.8 0 0 1 3.9 6.2c1.2 2.2 1.8 4.6 1.8 7.4 0 4.8-2 8.4-5.8 11a26 26 0 0 1-15 4c-4.5 0-8-.7-10.6-2.1-2.6-1.5-3.9-3-3.9-4.8 0-.5.2-1.2.6-2.2l1.6-3a45.6 45.6 0 0 1 2.2-3.1c.8-1 1.6-2 2.6-2.6.4-.2.7-.2 1 .2.4.4.4.8.2 1.2-.8.8-1.4 1.6-1.8 2.5-.4.9-.6 2-.6 3.5 0 2.3.8 4.3 2.4 5.8a8.5 8.5 0 0 0 6 2.3c3.5 0 6.2-1 8.1-2.9 2-2 2.9-4.3 2.9-7 0-2.5-.6-4.9-1.7-7a76.2 76.2 0 0 0-3.7-6.4 84.3 84.3 0 0 1-3.6-6.2 14.1 14.1 0 0 1-1.7-6.8c0-3.4 1.4-6.3 4.3-8.6 3-2.3 7.2-3.4 13-3.4z" fill="#606060"/></svg>